<svg width="234" height="85" viewBox="0 0 234 85" fill="none" xmlns="http://www.w3.org/2000/svg">
<path d="M230.956 68.6488C230.956 61.8294 226.081 59.6566 222.627 59.6566C219.964 59.9237 214.603 62.096 214.467 68.6488C214.331 75.2015 219.85 77.2552 222.627 77.4629C225.403 77.6707 230.956 74.611 230.956 68.6488Z" stroke="#326FB6" stroke-width="5" stroke-linecap="round"/>
<path d="M200.101 50.0808C199.17 60.9422 199.569 81.8404 208.613 78.5421" stroke="#326FB6" stroke-width="5" stroke-linecap="round"/>
<path d="M193.983 58.0606C199.229 58.6587 202.17 58.5878 207.416 58.0606" stroke="#326FB6" stroke-width="5" stroke-linecap="round"/>
<path d="M171.374 78.2761V64.2164M171.374 58.5926V64.2164M171.374 64.2164C177.906 58.5074 190.336 53.3266 187.793 78.2761" stroke="#326FB6" stroke-width="5" stroke-linecap="round"/>
<path d="M161.266 68.6488C161.266 61.8294 156.391 59.6566 152.936 59.6566C150.273 59.9237 144.913 62.096 144.777 68.6488C144.641 75.2015 150.16 77.2552 152.936 77.4629C155.713 77.6707 161.266 74.611 161.266 68.6488Z" stroke="#326FB6" stroke-width="5" stroke-linecap="round"/>
<path d="M133.869 48.3518V78.8081" stroke="#326FB6" stroke-width="5" stroke-linecap="round"/>
<path d="M133.736 65.2424C131.741 58.9916 119.372 55.4007 116.047 65.3755C112.643 82.3991 131.741 79.7391 133.869 71.4933" stroke="#326FB6" stroke-width="5" stroke-linecap="round"/>
<path d="M106.468 64.6972C106.468 54.4697 99.1566 51.2109 93.9753 51.2108C89.9811 51.6114 81.9417 54.8695 81.7377 64.6972C81.5338 74.5249 89.8111 77.6049 93.9753 77.9165C98.1394 78.2281 106.468 73.6392 106.468 64.6972Z" stroke="#326FB6" stroke-width="5" stroke-linecap="round"/>
<path d="M108.067 22.0185C110.24 18.206 122.431 14.1717 124.426 22.0185C126.932 31.8772 107.801 24.1465 106.604 29.8653C105.895 35.0079 108.307 43.2182 123.628 34.9192" stroke="#326FB6" stroke-width="5" stroke-linecap="round"/>
<path d="M124.293 25.6094C122.607 29.0069 123.628 35.4512 124.293 38.3771" stroke="#326FB6" stroke-width="5" stroke-linecap="round"/>
<path d="M197.973 9.25084C197.042 20.1122 197.441 41.0104 206.485 37.7121" stroke="#326FB6" stroke-width="5" stroke-linecap="round"/>
<path d="M191.855 17.2306C197.101 17.8288 200.042 17.7578 205.288 17.2306" stroke="#326FB6" stroke-width="5" stroke-linecap="round"/>
<path d="M161.266 16.4327V38.3771" stroke="#326FB6" stroke-width="5" stroke-linecap="round"/>
<path d="M159.138 7.25589L161.133 9.11784L163.261 7.25589" stroke="#326FB6" stroke-width="5" stroke-linecap="round"/>
<path d="M172.305 5.39394V38.7761" stroke="#326FB6" stroke-width="5" stroke-linecap="round"/>
<path d="M184.407 16.4327V38.3771" stroke="#326FB6" stroke-width="5" stroke-linecap="round"/>
<path d="M182.279 7.25589L184.274 9.11784L186.402 7.25589" stroke="#326FB6" stroke-width="5" stroke-linecap="round"/>
<path d="M150.094 22.7918C147.658 18.8963 141.209 13.4426 134.905 22.7918C127.024 34.4784 146.896 43.5089 150.094 31.9552" stroke="#326FB6" stroke-width="5" stroke-linecap="round"/>
<path d="M214.441 21.5938C216.613 17.7813 228.805 13.747 230.8 21.5938C233.306 31.4525 214.175 23.7218 212.978 29.4406C212.269 34.5832 214.68 42.7935 230.002 34.4945" stroke="#326FB6" stroke-width="5" stroke-linecap="round"/>
<path d="M230.667 25.1848C228.981 28.5822 230.002 35.0265 230.667 37.9524" stroke="#326FB6" stroke-width="5" stroke-linecap="round"/>
<path d="M82.9311 9.38383V38.6431" stroke="#326FB6" stroke-width="5" stroke-linecap="round"/>
<path d="M82.9311 9.38383H100.221" stroke="#326FB6" stroke-width="5" stroke-linecap="round"/>
<path d="M82.9307 23.948H100.354" stroke="#326FB6" stroke-width="5" stroke-linecap="round"/>
<path d="M11.5921 80.256C6.22929 72.1611 7.62875 45.6349 3.40354 22.7588C-0.821662 -0.117436 29.1235 16.0238 46.8988 5.32324C64.6741 -5.37728 60.0857 23.158 55.5128 44.5864C50.94 66.0148 47.9009 80.256 42.9641 80.256C38.0272 80.256 36.0516 61.7558 27.9693 60.8241C19.8871 59.8924 17.6077 89.3467 11.5921 80.256Z" stroke="#326FB6" stroke-width="5"/>
<path d="M21.3535 30.1778C21.3535 30.1778 26.8681 37.1006 29.8297 37.8132C33.2829 38.6442 44.229 22.9495 44.229 22.9495" stroke="#326FB6" stroke-width="5" stroke-linecap="round"/>
</svg>
